HIERARCHY
ROOT SpineBase
{
  OFFSET 0.000000 0.000000 0.000000
  CHANNELS 6 Xposition Yposition Zposition Zrotation Xrotation Yrotation
  JOINT SpineMid
  {
    OFFSET 0.000000 26.592164 0.000000
    CHANNELS 3 Zrotation Xrotation Yrotation
    JOINT SpineShoulder
    {
      OFFSET -0.033005 19.787963 -0.645946
      CHANNELS 3 Zrotation Xrotation Yrotation
      JOINT Neck
      {
        OFFSET -0.035614 6.571613 -0.518628
        CHANNELS 3 Zrotation Xrotation Yrotation
        JOINT Head
        {
          OFFSET 3.472102 14.147983 2.271745
          CHANNELS 3 Zrotation Xrotation Yrotation
          End Site
          {
            OFFSET 0 0 0
          }
        }
      }
      JOINT ShoulderLeft
      {
        OFFSET -11.300134 -2.366189 -6.755984
        CHANNELS 3 Zrotation Xrotation Yrotation
        JOINT ElbowLeft
        {
          OFFSET -6.158684 -22.829737 -2.865610
          CHANNELS 3 Zrotation Xrotation Yrotation
          JOINT WristLeft
          {
            OFFSET 0.239227 -18.359348 -6.013812
            CHANNELS 3 Zrotation Xrotation Yrotation
            JOINT HandLeft
            {
              OFFSET 1.086389 -7.170354 -1.059867
              CHANNELS 3 Zrotation Xrotation Yrotation
              JOINT HandTipLeft
              {
                OFFSET 0.323930 -6.153936 -1.598818
                CHANNELS 3 Zrotation Xrotation Yrotation
                End Site
                {
                  OFFSET 0 0 0
                }
              }
              JOINT ThumbLeft
              {
                OFFSET 2.514164 0.023317 -1.013818
                CHANNELS 3 Zrotation Xrotation Yrotation
                End Site
                {
                  OFFSET 0 0 0
                }
              }
            }
          }
        }
      }
      JOINT ShoulderRight
      {
        OFFSET 11.232540 -4.372340 3.906478
        CHANNELS 3 Zrotation Xrotation Yrotation
        JOINT ElbowRight
        {
          OFFSET 0.640716 -22.368556 3.868983
          CHANNELS 3 Zrotation Xrotation Yrotation
          JOINT WristRight
          {
            OFFSET 2.240546 -24.434123 -6.564014
            CHANNELS 3 Zrotation Xrotation Yrotation
            JOINT HandRight
            {
              OFFSET -2.180402 -7.255979 -1.249808
              CHANNELS 3 Zrotation Xrotation Yrotation
              JOINT HandTipRight
              {
                OFFSET 1.020076 -4.883678 -1.328369
                CHANNELS 3 Zrotation Xrotation Yrotation
                End Site
                {
                  OFFSET 0 0 0
                }
              }
              JOINT ThumbRight
              {
                OFFSET -2.414859 0.543642 -3.199352
                CHANNELS 3 Zrotation Xrotation Yrotation
                End Site
                {
                  OFFSET 0 0 0
                }
              }
            }
          }
        }
      }
    }
  }
  JOINT HipLeft
  {
    OFFSET -5.435553 1.239284 -5.272357
    CHANNELS 3 Zrotation Xrotation Yrotation
    JOINT KneeLeft
    {
      OFFSET -8.063557 -31.039152 -1.349709
      CHANNELS 3 Zrotation Xrotation Yrotation
      JOINT AnkleLeft
      {
        OFFSET -3.218505 -34.917019 7.753072
        CHANNELS 3 Zrotation Xrotation Yrotation
        JOINT FootLeft
        {
          OFFSET 3.383038 -6.281460 -3.385262
          CHANNELS 3 Zrotation Xrotation Yrotation
          End Site
          {
            OFFSET 0 0 0
          }
        }
      }
    }
  }
  JOINT HipRight
  {
    OFFSET 5.165075 0.328799 -0.782324
    CHANNELS 3 Zrotation Xrotation Yrotation
    JOINT KneeRight
    {
      OFFSET -5.059137 -25.631853 -1.705267
      CHANNELS 3 Zrotation Xrotation Yrotation
      JOINT AnkleRight
      {
        OFFSET -9.000047 -39.449635 6.199594
        CHANNELS 3 Zrotation Xrotation Yrotation
        JOINT FootRight
        {
          OFFSET -0.130110 -4.522813 -8.953875
          CHANNELS 3 Zrotation Xrotation Yrotation
          End Site
          {
            OFFSET 0 0 0
          }
        }
      }
    }
  }
}
MOTION
Frames: 10
Frame Time: 0.033333
15.994670 81.959400 372.274481 -0.627402 4.693164 -27.628230 -1.429289 0.159124 27.561092 -0.268112 0.198649 -0.093469 4.434512 4.676382 -2.642608 0.000000 0.000000 0.000000 -62.918225 55.395908 21.461949 -153.401641 28.021603 -19.730044 15.714057 -1.586868 76.840009 -14.329239 4.819640 15.063157 0.000000 0.000000 0.000000 0.000000 0.000000 0.000000 84.549272 16.370081 9.027151 137.526764 8.303067 93.083666 9.105049 -14.017150 -51.875037 15.468331 16.473022 70.357439 0.000000 0.000000 0.000000 0.000000 0.000000 0.000000 6.352773 -2.871086 28.010178 -3.655252 0.810560 -0.025493 -5.072757 -2.747304 1.177271 0.000000 0.000000 0.000000 8.649530 -2.805189 28.071191 -5.151971 2.436670 0.038074 12.308785 7.111849 -23.142861 0.000000 0.000000 0.000000
16.266325 83.180745 372.261103 -1.198119 4.063819 -28.240464 -1.173471 0.098490 28.192110 -0.099608 0.027970 -0.095146 4.714681 2.507910 -1.861038 0.000000 0.000000 0.000000 -62.505624 51.860456 20.715678 -157.937670 29.586545 -30.289872 19.517222 1.272834 80.256806 -16.051648 -0.267460 23.183781 0.000000 0.000000 0.000000 0.000000 0.000000 0.000000 80.760754 13.638618 9.775911 139.583825 12.129010 105.495982 -1.161637 -16.832292 -65.739719 14.838427 17.086955 71.130367 0.000000 0.000000 0.000000 0.000000 0.000000 0.000000 6.521207 -2.160153 28.612272 -3.512960 0.941229 -0.062335 -9.203238 -13.691557 -3.973841 0.000000 0.000000 0.000000 8.694605 -2.078053 28.627660 -4.814263 2.556897 0.005447 12.589721 6.357655 -23.946923 0.000000 0.000000 0.000000
16.446150 84.427059 372.203589 -1.907789 2.391960 -27.664106 -0.758996 0.048265 27.618384 0.075548 -0.178818 -0.105226 3.776903 0.990812 -0.830092 0.000000 0.000000 0.000000 -59.263027 48.263879 19.189103 -162.165668 25.809462 -30.071879 14.491409 -0.225358 72.007320 -10.879637 -9.795439 33.211633 0.000000 0.000000 0.000000 0.000000 0.000000 0.000000 75.467759 8.049894 11.107524 137.645216 16.066209 132.219152 -12.104864 -10.329256 -82.849725 16.591768 3.770211 65.434511 0.000000 0.000000 0.000000 0.000000 0.000000 0.000000 6.409009 -0.415254 27.880419 -3.662229 1.931435 -0.171961 -6.611851 -9.425760 -1.552811 0.000000 0.000000 0.000000 8.515810 -0.601466 27.886124 -4.629630 2.840683 -0.047073 12.596327 5.578464 -24.232077 0.000000 0.000000 0.000000
16.569137 85.427435 372.104997 -2.179086 0.223833 -26.244928 0.028818 0.323249 26.189902 -0.010853 -0.389667 -0.101097 -0.548448 -1.287845 0.828631 0.000000 0.000000 0.000000 -53.857601 44.784924 16.613193 -169.114496 20.367698 -26.211416 7.921537 -0.296009 58.130768 -4.251052 -18.081946 40.848264 0.000000 0.000000 0.000000 0.000000 0.000000 0.000000 68.399319 0.826521 12.411249 129.342711 20.192624 169.281669 -29.086635 4.618478 -109.417442 18.135022 -1.530817 63.953049 0.000000 0.000000 0.000000 0.000000 0.000000 0.000000 5.744165 1.567725 26.237337 -3.814836 2.002599 -0.178203 -3.652973 -4.293403 0.296228 0.000000 0.000000 0.000000 7.822984 0.911710 26.280081 -4.430836 3.232174 -0.116414 12.417737 5.115358 -24.145131 0.000000 0.000000 0.000000
16.758744 86.775797 372.019164 -2.626835 -2.555674 -26.389636 -0.503984 0.021359 26.242589 0.222507 0.010156 -0.137027 -4.796096 -2.813638 2.607983 0.000000 0.000000 0.000000 -41.892470 38.104402 11.376654 -178.237668 9.062300 -19.175273 -0.616324 3.576116 38.960366 5.583321 -25.986911 53.697751 0.000000 0.000000 0.000000 0.000000 0.000000 0.000000 59.532690 -8.984682 13.675825 128.709680 19.733069 -170.373801 -28.528120 9.501709 -106.118796 8.938724 -11.879906 62.986310 0.000000 0.000000 0.000000 0.000000 0.000000 0.000000 5.048700 4.174894 26.147450 -3.892323 2.181860 -0.207962 -0.344136 3.900008 3.064153 0.000000 0.000000 0.000000 6.872120 3.555137 26.082535 -4.286641 3.336619 -0.152873 11.930132 4.767443 -23.301750 0.000000 0.000000 0.000000
16.786592 87.367916 371.983569 -2.312831 -3.733359 -25.776377 -0.343642 -0.415021 25.613235 0.226890 0.225047 -0.127672 -15.939147 -10.838684 5.473064 0.000000 0.000000 0.000000 -32.325231 34.964025 7.416021 173.654207 0.891694 -10.194986 -9.434676 13.213292 16.113187 24.001013 -30.211835 73.737678 0.000000 0.000000 0.000000 0.000000 0.000000 0.000000 60.128274 -1.316215 9.313305 118.679702 30.764631 -157.710309 -35.789799 8.356729 -101.906045 0.146212 -3.917133 68.118778 0.000000 0.000000 0.000000 0.000000 0.000000 0.000000 4.292655 5.205491 25.429418 -3.852190 1.988050 -0.146886 6.496750 12.249904 2.931257 0.000000 0.000000 0.000000 6.244810 4.374375 25.385252 -4.285820 3.459919 -0.157249 12.819936 3.179487 -25.461240 0.000000 0.000000 0.000000
16.826973 87.812834 371.936466 -5.695980 -8.459735 -23.118720 -0.454655 -0.306162 22.513859 0.307450 0.418875 -0.292325 -20.698034 -11.567903 8.311167 0.000000 0.000000 0.000000 -22.803807 33.827387 6.688582 166.160547 -6.789007 -3.682673 -17.426344 28.169930 -5.847530 46.025134 -26.078374 88.279677 0.000000 0.000000 0.000000 0.000000 0.000000 0.000000 59.536089 2.342767 4.476981 103.267981 31.565530 -127.923914 -41.715105 21.167435 -105.279829 -2.836030 -5.997895 66.225440 0.000000 0.000000 0.000000 0.000000 0.000000 0.000000 5.716160 11.134003 21.757652 -3.842424 0.333658 0.090856 7.943169 20.936438 4.962168 0.000000 0.000000 0.000000 7.876061 9.359693 21.737508 -4.253385 3.919145 -0.251179 12.138576 1.896924 -24.409017 0.000000 0.000000 0.000000
16.624593 87.801857 372.105346 -6.818609 -10.663381 -20.299634 -0.705604 -0.390150 19.462484 0.319338 0.423629 -0.363453 -24.841502 -11.162808 10.060423 0.000000 0.000000 0.000000 -10.355895 38.188669 1.790300 155.569936 -5.209017 -3.166056 -22.073426 31.271444 -7.967299 52.728502 -21.571751 83.863175 0.000000 0.000000 0.000000 0.000000 0.000000 0.000000 54.981535 3.495620 2.276316 86.616808 22.946672 -92.390775 -54.816143 49.022311 -109.904766 -3.114555 -2.572384 70.336752 0.000000 0.000000 0.000000 0.000000 0.000000 0.000000 6.701922 13.842597 18.243918 -3.900233 0.623432 0.189235 4.796711 27.364846 10.024810 0.000000 0.000000 0.000000 9.136682 11.333667 18.270314 -4.422297 3.915895 -0.179967 9.857161 2.420056 -20.639317 0.000000 0.000000 0.000000
16.352529 87.009295 372.467841 -7.386157 -12.279204 -16.233197 -1.119822 -0.619331 15.246929 0.267789 0.622786 -0.399584 -23.829068 -7.225226 10.873146 0.000000 0.000000 0.000000 4.147571 47.862555 -7.164985 139.338328 6.516999 -7.938381 -17.597923 27.840439 -4.533565 55.969699 -17.908188 93.376614 0.000000 0.000000 0.000000 0.000000 0.000000 0.000000 51.999689 0.780031 2.246786 70.223432 -2.137938 -55.844543 149.014945 60.643729 8.719265 2.627711 5.853183 76.434767 0.000000 0.000000 0.000000 0.000000 0.000000 0.000000 8.018761 15.844086 13.449022 -4.173601 -0.161293 0.398512 -3.564083 33.119036 18.622267 0.000000 0.000000 0.000000 10.470408 12.409699 13.650427 -4.615277 3.729453 -0.079576 5.776459 3.752396 -13.355142 0.000000 0.000000 0.000000
15.971782 84.247077 372.608530 -7.198204 -11.860470 -9.255965 -1.206240 -0.592045 8.314552 0.428602 0.408419 -0.413410 -17.376697 -2.208430 9.349863 0.000000 0.000000 0.000000 12.518299 57.967000 -15.838981 124.617084 21.957518 -10.447560 -12.147744 20.476158 5.992435 55.602430 -15.243026 82.907010 0.000000 0.000000 0.000000 0.000000 0.000000 0.000000 47.643602 -5.812041 4.188972 0.300004 -46.952478 -8.562459 -91.934948 -71.821163 80.994957 0.444318 52.284299 95.314992 0.000000 0.000000 0.000000 0.000000 0.000000 0.000000 10.058701 14.904572 6.171079 -4.432166 -0.747364 0.557099 -16.020849 36.026576 30.136019 0.000000 0.000000 0.000000 11.705412 9.744402 7.034579 -4.327344 4.465457 -0.198011 0.408866 5.760474 -3.633604 0.000000 0.000000 0.000000
